  0
SECTION
  2
HEADER
  9
$ACADVER
  1
AC1015
  0
ENDSEC
  0
SECTION
  2
ENTITIES
  0
LINE
  8
0
 10
0.0
 20
0.0
 30
0.0
 11
200.0
 21
0.0
 31
0.0
  0
LINE
  8
0
 10
200.0
 20
0.0
 30
0.0
 11
200.0
 21
150.0
 31
0.0
  0
LINE
  8
0
 10
200.0
 20
150.0
 30
0.0
 11
0.0
 21
150.0
 31
0.0
  0
LINE
  8
0
 10
0.0
 20
150.0
 30
0.0
 11
0.0
 21
0.0
 31
0.0
  0
CIRCLE
  8
0
 10
100.0
 20
75.0
 30
0.0
 40
50.0
  0
LINE
  8
0
 10
20.0
 20
20.0
 30
0.0
 11
80.0
 21
60.0
 31
0.0
  0
LINE
  8
0
 10
120.0
 20
20.0
 30
0.0
 11
180.0
 21
60.0
 31
0.0
  0
ARC
  8
0
 10
100.0
 20
75.0
 30
0.0
 40
30.0
 50
200.0
 51
340.0
  0
LWPOLYLINE
  8
0
 90
5
 70
1
 10
30.0
 20
100.0
 10
60.0
 20
130.0
 10
100.0
 20
120.0
 10
140.0
 20
130.0
 10
170.0
 20
100.0
  0
ENDSEC
  0
EOF
